<svg width="456" height="302" viewBox="0 0 456 302" fill="none" xmlns="http://www.w3.org/2000/svg">
<path d="M438.175 202.105C434.883 205.702 430.799 208.38 426.368 210.459H426.363C425.946 210.657 425.529 210.849 425.107 211.031H425.101L425.096 211.037L425.091 211.031H425.085C425.085 211.032 425.085 211.033 425.085 211.033C425.085 211.034 425.084 211.035 425.084 211.035C425.083 211.036 425.083 211.036 425.082 211.036C425.081 211.036 425.081 211.037 425.08 211.037H425.074L425.069 211.031C425.064 211.037 425.064 211.037 425.059 211.031L425.053 211.037L425.048 211.031H425.043C425.037 211.037 425.037 211.037 425.032 211.031H425.026C422.061 212.314 419.015 213.403 415.908 214.292C397.638 219.475 378.436 220.478 359.725 217.226C359.367 217.162 359.014 217.098 358.656 217.034V173.679C359.009 173.53 359.367 173.38 359.725 173.236C362.061 172.268 364.426 171.379 366.818 170.568C370.261 169.393 373.751 168.384 377.289 167.543C388.834 164.749 400.745 163.786 412.588 164.689C414.743 164.849 416.891 165.081 419.035 165.384C423.519 166.009 428.223 167.1 432.36 168.992H432.365C432.969 169.275 433.563 169.569 434.151 169.884C437.828 171.878 440.928 174.62 442.82 178.378C443.5 179.727 443.989 181.165 444.274 182.649V182.659C444.381 183.172 444.456 183.691 444.515 184.204C445.188 190.533 442.564 197.305 438.175 202.105Z" fill="#BDBDBD"/>
<path d="M444.515 184.204C444.462 184.217 444.409 184.224 444.354 184.225C435.198 184.626 426.055 185.221 416.923 186.011H416.907C416.87 186.016 416.838 186.016 416.801 186.021C407.425 186.834 398.069 187.851 388.733 189.073C388.338 189.127 387.947 189.18 387.557 189.228C381.101 190.089 374.656 191.044 368.224 192.093C365.386 192.558 362.553 193.043 359.725 193.547C359.367 193.611 359.014 193.67 358.656 193.74V192.12C359.014 192.051 359.373 191.992 359.725 191.928C369.144 190.26 378.594 188.804 388.076 187.561C390.46 187.24 392.847 186.937 395.238 186.652C402.144 185.818 409.061 185.098 415.988 184.493C416.496 184.45 416.998 184.407 417.506 184.364C426.373 183.611 435.253 183.039 444.146 182.649C444.189 182.647 444.232 182.65 444.274 182.659C445.13 182.734 445.311 184.017 444.515 184.204Z" fill="white"/>
<path d="M425.5 209.456C414.094 209.54 402.856 204.703 394.788 196.698C392.512 194.43 390.506 191.906 388.81 189.177C388.266 188.305 386.994 189.267 387.533 190.131C393.799 200.18 404.237 207.339 415.744 209.971C419.012 210.711 422.355 211.069 425.705 211.037C426.728 211.029 426.516 209.449 425.5 209.456V209.456Z" fill="white"/>
<path d="M377.289 167.543C377.24 167.693 377.153 167.828 377.036 167.934C376.919 168.04 376.776 168.114 376.621 168.147C374.007 168.832 371.482 169.819 369.096 171.087C365.611 172.927 362.447 175.319 359.725 178.169C359.581 178.314 359.442 178.458 359.309 178.608C359.084 178.843 358.87 179.083 358.656 179.329V176.999C358.999 176.635 359.357 176.277 359.725 175.935C361.874 173.878 364.254 172.077 366.818 170.569C370.261 169.393 373.751 168.384 377.289 167.543Z" fill="white"/>
<path d="M433.305 168.57C426.05 171.689 419.979 177.042 415.976 183.85C415.895 184.045 415.894 184.263 415.973 184.459C416.052 184.654 416.205 184.811 416.399 184.894C416.595 184.971 416.812 184.97 417.006 184.891C417.201 184.812 417.357 184.662 417.444 184.47C421.264 178.04 427.028 172.99 433.905 170.047C434.848 169.644 434.251 168.166 433.305 168.57L433.305 168.57Z" fill="white"/>
<path d="M455.178 123.173C453.938 127.888 451.56 132.158 448.604 136.055L448.598 136.06C448.326 136.424 448.043 136.793 447.749 137.145V137.151C445.696 139.679 443.481 142.07 441.115 144.308C432.613 152.41 423.009 159.272 412.588 164.689C396.195 173.252 377.872 178.314 359.725 178.602C359.587 178.608 359.447 178.608 359.309 178.608C359.089 178.613 358.87 178.613 358.656 178.613V154.319C359.004 153.657 359.362 152.994 359.725 152.336C364.441 143.851 370.192 135.983 376.846 128.914C377.006 128.738 377.172 128.561 377.338 128.39C379.839 125.75 382.462 123.236 385.205 120.848C395.761 111.567 407.96 104.343 421.173 99.5478C425.433 98.019 430.104 96.795 434.648 96.5545C435.316 96.5171 435.979 96.501 436.647 96.5064C440.832 96.5652 444.846 97.554 448.272 100.002C449.499 100.883 450.6 101.928 451.544 103.108C451.875 103.519 452.18 103.941 452.474 104.374V104.38C456.012 109.671 456.835 116.882 455.178 123.173Z" fill="#BDBDBD"/>
<path d="M452.474 104.374V104.38C452.434 104.414 452.391 104.445 452.345 104.471C444.435 109.073 436.624 113.842 428.912 118.78C428.902 118.785 428.896 118.79 428.886 118.796C428.855 118.817 428.823 118.837 428.789 118.854C420.863 123.932 413.048 129.181 405.346 134.601C405.025 134.826 404.699 135.055 404.373 135.285C399.055 139.043 393.792 142.881 388.584 146.799C378.749 154.207 369.129 161.89 359.725 169.847C359.367 170.146 359.014 170.451 358.656 170.756V168.676C359.009 168.372 359.367 168.067 359.725 167.768C363.328 164.726 366.963 161.728 370.629 158.772C371.725 157.89 372.826 157.008 373.927 156.137C383.709 148.349 393.71 140.851 403.929 133.644H403.935C405.945 132.228 407.958 130.824 409.975 129.432C415.705 125.488 421.499 121.637 427.357 117.882C427.779 117.609 428.207 117.336 428.634 117.064C436.134 112.274 443.731 107.642 451.426 103.166C451.464 103.144 451.503 103.124 451.544 103.108C452.345 102.787 453.099 103.845 452.474 104.374Z" fill="white"/>
<path d="M447.368 135.57C437.306 140.943 425.108 141.88 414.244 138.538C411.175 137.588 408.226 136.285 405.457 134.655C404.57 134.136 403.89 135.578 404.769 136.094C414.986 142.082 427.554 143.573 438.967 140.558C442.205 139.696 445.332 138.46 448.284 136.875C449.186 136.393 448.264 135.092 447.368 135.57V135.57Z" fill="white"/>
<path d="M372.084 155.127C371.586 152.329 371.415 149.483 371.575 146.645C371.935 140.174 373.916 133.896 377.337 128.391C379.842 125.752 382.465 123.237 385.207 120.848C385.233 121.004 385.218 121.164 385.163 121.313C385.108 121.462 385.015 121.593 384.894 121.695C382.898 123.516 381.12 125.562 379.596 127.793C374.15 135.741 372.024 145.502 373.672 154.995C373.699 155.103 373.697 155.216 373.668 155.322C373.639 155.429 373.582 155.527 373.505 155.606C373.39 155.706 373.252 155.773 373.103 155.803C372.954 155.832 372.801 155.823 372.657 155.774C372.513 155.726 372.385 155.641 372.284 155.527C372.184 155.414 372.115 155.276 372.084 155.127Z" fill="white"/>
<path d="M435.288 95.7379C430.311 101.87 427.421 109.431 427.039 117.319C427.058 117.529 427.158 117.723 427.32 117.86C427.481 117.996 427.689 118.063 427.899 118.047C428.108 118.025 428.3 117.923 428.436 117.762C428.571 117.602 428.64 117.396 428.627 117.187C429.024 109.718 431.782 102.568 436.505 96.7675C437.153 95.9723 435.938 94.9411 435.288 95.7379Z" fill="white"/>
<path d="M379.935 113.301V113.306C379.898 113.766 379.855 114.22 379.807 114.674V114.685C379.435 117.919 378.855 121.126 378.07 124.285C377.696 125.835 377.289 127.374 376.846 128.914C376.792 129.112 376.733 129.309 376.675 129.502V129.507C375.369 133.984 373.81 138.383 372.003 142.683C368.68 150.599 364.566 158.16 359.725 165.25C359.378 165.769 359.02 166.287 358.656 166.8V83.0954C359.014 83.074 359.367 83.074 359.725 83.0847C359.896 83.0847 360.067 83.0901 360.239 83.1008C361.747 83.18 363.236 83.4697 364.664 83.9613C365.167 84.127 365.653 84.3141 366.134 84.5226C371.966 87.0776 376.547 92.7113 378.535 98.9063C380.026 103.546 380.325 108.426 379.935 113.301Z" fill="#BDBDBD"/>
<path d="M366.134 84.5226C366.122 84.575 366.102 84.6254 366.075 84.6723C363.911 88.8789 361.794 93.1069 359.725 97.3562C359.367 98.0885 359.009 98.8262 358.656 99.5584V95.9237C359.009 95.1968 359.366 94.4699 359.725 93.7429C361.324 90.5038 362.949 87.2789 364.6 84.0682C364.618 84.0308 364.64 83.995 364.664 83.9613C365.156 83.2558 366.375 83.7369 366.134 84.5226Z" fill="white"/>
<path d="M380.106 114.161C380.01 114.332 379.914 114.503 379.807 114.674C378.237 117.41 376.369 119.962 374.237 122.286C370.142 126.729 365.211 130.32 359.725 132.853C359.373 133.024 359.014 133.185 358.656 133.334V131.597C359.014 131.437 359.373 131.271 359.725 131.1C367.666 127.313 374.261 121.193 378.631 113.557C378.694 113.448 378.78 113.354 378.883 113.281C378.985 113.208 379.102 113.158 379.226 113.134C379.35 113.11 379.477 113.113 379.599 113.143C379.722 113.173 379.836 113.228 379.935 113.306C380.003 113.351 380.061 113.409 380.106 113.476C380.151 113.543 380.182 113.619 380.198 113.698C380.214 113.778 380.214 113.859 380.198 113.939C380.183 114.018 380.151 114.094 380.106 114.161Z" fill="white"/>
<path d="M359.725 17.6389V58.2619H358.656V57.829H1.06902V58.2619H0V17.6389C0.00459057 12.9622 1.86443 8.47834 5.17136 5.17139C8.47829 1.86445 12.9621 0.0045906 17.6388 0H342.087C346.763 0.0045906 351.247 1.86445 354.554 5.17139C357.861 8.47834 359.721 12.9622 359.725 17.6389Z" fill="#0A58CA"/>
<path d="M342.087 0H17.6388C12.9621 0.0045906 8.47829 1.86445 5.17136 5.17139C1.86443 8.47834 0.00459057 12.9622 0 17.6389V249.618C0.00459057 254.294 1.86443 258.778 5.17136 262.085C8.47829 265.392 12.9621 267.252 17.6388 267.257H342.087C346.763 267.252 351.247 265.392 354.554 262.085C357.861 258.778 359.721 254.294 359.725 249.618V17.6389C359.721 12.9622 357.861 8.47834 354.554 5.17139C351.247 1.86445 346.763 0.0045906 342.087 0ZM358.656 249.618C358.651 254.011 356.903 258.222 353.797 261.328C350.691 264.434 346.479 266.182 342.087 266.188H17.6388C13.246 266.182 9.03462 264.434 5.92839 261.328C2.82216 258.222 1.07463 254.011 1.06902 249.618V17.6389C1.07463 13.246 2.82216 9.03468 5.92839 5.92844C9.03462 2.82219 13.246 1.07463 17.6388 1.06903H342.087C346.479 1.07463 350.691 2.82219 353.797 5.92844C356.903 9.03468 358.651 13.246 358.656 17.6389V249.618Z" fill="#3F3D56"/>
<path d="M72.6934 39.8212C78.5974 39.8212 83.3836 35.035 83.3836 29.131C83.3836 23.2269 78.5974 18.4407 72.6934 18.4407C66.7893 18.4407 62.0032 23.2269 62.0032 29.131C62.0032 35.035 66.7893 39.8212 72.6934 39.8212Z" fill="white"/>
<path d="M287.032 39.8212C292.936 39.8212 297.722 35.035 297.722 29.131C297.722 23.2269 292.936 18.4407 287.032 18.4407C281.128 18.4407 276.342 23.2269 276.342 29.131C276.342 35.035 281.128 39.8212 287.032 39.8212Z" fill="white"/>
<path d="M103.58 148.328H39.9858C37.2916 148.325 34.7087 147.254 32.8037 145.349C30.8986 143.444 29.827 140.861 29.824 138.167V108.11C29.827 105.415 30.8986 102.832 32.8037 100.927C34.7087 99.0223 37.2916 97.9507 39.9858 97.9476H103.58C106.274 97.9507 108.857 99.0223 110.762 100.927C112.667 102.832 113.739 105.415 113.742 108.11V138.167C113.739 140.861 112.667 143.444 110.762 145.349C108.857 147.254 106.274 148.325 103.58 148.328Z" fill="#0D6EFD"/>
<path d="M211.764 148.328H148.17C145.476 148.325 142.893 147.254 140.988 145.349C139.083 143.444 138.011 140.861 138.008 138.167V108.11C138.011 105.415 139.083 102.832 140.988 100.927C142.893 99.0223 145.476 97.9507 148.17 97.9476H211.764C214.458 97.9507 217.041 99.0223 218.946 100.927C220.851 102.832 221.923 105.415 221.926 108.11V138.167C221.923 140.861 220.851 143.444 218.946 145.349C217.041 147.254 214.458 148.325 211.764 148.328Z" fill="#0D6EFD"/>
<path d="M211.764 225.989H148.17C145.394 225.985 142.733 224.881 140.77 222.919C138.807 220.956 137.703 218.295 137.7 215.519V185.461C137.703 182.686 138.807 180.024 140.77 178.062C142.733 176.099 145.394 174.995 148.17 174.992H211.764C214.54 174.995 217.201 176.099 219.164 178.062C221.127 180.024 222.231 182.686 222.234 185.461V215.519C222.231 218.295 221.127 220.956 219.164 222.919C217.201 224.881 214.54 225.985 211.764 225.989Z" fill="#BDBDBD"/>
<path d="M103.371 225.989H39.7773C37.0016 225.985 34.3404 224.881 32.3776 222.919C30.4148 220.956 29.3107 218.295 29.3076 215.519V185.461C29.3107 182.686 30.4148 180.024 32.3776 178.062C34.3404 176.099 37.0016 174.995 39.7773 174.992H103.371C106.147 174.995 108.808 176.099 110.771 178.062C112.734 180.024 113.838 182.686 113.841 185.461V215.519C113.838 218.295 112.734 220.956 110.771 222.919C108.808 224.881 106.147 225.985 103.371 225.989Z" fill="#BDBDBD"/>
<path d="M319.948 225.989H256.354C253.578 225.985 250.917 224.881 248.954 222.919C246.991 220.956 245.887 218.295 245.884 215.519V185.461C245.887 182.686 246.991 180.024 248.954 178.062C250.917 176.099 253.578 174.995 256.354 174.992H319.948C322.724 174.995 325.385 176.099 327.348 178.062C329.311 180.024 330.415 182.686 330.418 185.461V215.519C330.415 218.295 329.311 220.956 327.348 222.919C325.385 224.881 322.724 225.985 319.948 225.989Z" fill="#BDBDBD"/>
<path d="M319.948 148.389H256.354C253.578 148.386 250.917 147.282 248.954 145.319C246.991 143.356 245.887 140.695 245.884 137.919V107.862C245.887 105.086 246.991 102.425 248.954 100.462C250.917 98.4991 253.578 97.395 256.354 97.3919H319.948C322.724 97.395 325.385 98.4991 327.348 100.462C329.311 102.425 330.415 105.086 330.418 107.862V137.919C330.415 140.695 329.311 143.356 327.348 145.319C325.385 147.282 322.724 148.386 319.948 148.389Z" fill="#BDBDBD"/>
<path d="M71.7829 140.382C81.3066 140.382 89.0271 132.662 89.0271 123.138C89.0271 113.614 81.3066 105.894 71.7829 105.894C62.2591 105.894 54.5386 113.614 54.5386 123.138C54.5386 132.662 62.2591 140.382 71.7829 140.382Z" fill="white"/>
<path d="M70.0736 129.716C69.6856 129.717 69.3079 129.592 68.9975 129.359L68.9782 129.345L64.9257 126.242C64.7378 126.098 64.58 125.919 64.4614 125.714C64.3428 125.509 64.2657 125.283 64.2346 125.049C64.2034 124.814 64.2188 124.576 64.2798 124.347C64.3408 124.119 64.4463 123.904 64.5901 123.716C64.734 123.529 64.9135 123.371 65.1184 123.253C65.3232 123.134 65.5494 123.057 65.7839 123.026C66.0185 122.996 66.2568 123.011 66.4854 123.072C66.7139 123.134 66.9281 123.239 67.1158 123.383L69.7407 125.396L75.9438 117.306C76.0877 117.119 76.2671 116.961 76.4718 116.843C76.6765 116.725 76.9025 116.648 77.1369 116.617C77.3713 116.586 77.6095 116.602 77.8379 116.663C78.0663 116.724 78.2805 116.829 78.4681 116.973L78.4295 117.026L78.4691 116.974C78.8475 117.265 79.0952 117.694 79.1576 118.167C79.2201 118.64 79.0923 119.119 78.8023 119.498L71.506 129.014C71.3372 129.233 71.1202 129.41 70.8718 129.532C70.6234 129.654 70.3502 129.717 70.0736 129.716Z" fill="#0A58CA"/>
<path d="M180.275 140.135C189.799 140.135 197.519 132.414 197.519 122.89C197.519 113.367 189.799 105.646 180.275 105.646C170.751 105.646 163.031 113.367 163.031 122.89C163.031 132.414 170.751 140.135 180.275 140.135Z" fill="white"/>
<path d="M178.566 129.469C178.178 129.469 177.8 129.344 177.489 129.111L177.47 129.097L173.418 125.994C173.039 125.704 172.791 125.275 172.728 124.801C172.665 124.328 172.793 123.849 173.084 123.47C173.374 123.091 173.803 122.843 174.276 122.78C174.75 122.717 175.229 122.845 175.608 123.136L178.233 125.148L184.436 117.059C184.58 116.871 184.759 116.714 184.964 116.595C185.169 116.477 185.395 116.4 185.629 116.369C185.863 116.338 186.102 116.354 186.33 116.415C186.558 116.476 186.772 116.582 186.96 116.725L186.922 116.778L186.961 116.726C187.34 117.017 187.587 117.446 187.65 117.92C187.712 118.393 187.584 118.871 187.294 119.251L179.998 128.766C179.829 128.985 179.612 129.163 179.364 129.285C179.115 129.407 178.842 129.469 178.566 129.469Z" fill="#0A58CA"/>
<path d="M296.82 204.264C297.387 203.645 297.81 202.908 298.062 202.108C298.313 201.307 298.385 200.46 298.274 199.628C298.163 198.796 297.871 197.999 297.418 197.292C296.965 196.585 296.363 195.986 295.653 195.537L286.026 144.131L274.318 148.473L287.463 197.638C286.788 198.879 286.591 200.326 286.911 201.702C287.231 203.079 288.045 204.29 289.198 205.107C290.352 205.924 291.765 206.289 293.169 206.134C294.574 205.979 295.873 205.313 296.82 204.264Z" fill="#A0616A"/>
<path d="M203.396 125.825C203.425 126.144 203.429 126.465 203.407 126.785L226.172 144.306L232.628 141.655L237.902 150.875L226.93 156.678C226.043 157.147 225.029 157.316 224.038 157.159C223.048 157.002 222.135 156.528 221.437 155.808L198.682 132.349C197.478 132.621 196.219 132.519 195.073 132.058C193.928 131.597 192.95 130.798 192.27 129.768C191.59 128.737 191.239 127.524 191.265 126.289C191.291 125.055 191.693 123.858 192.416 122.857C193.139 121.856 194.149 121.099 195.313 120.686C196.477 120.274 197.739 120.226 198.931 120.548C200.123 120.87 201.188 121.547 201.986 122.49C202.784 123.433 203.275 124.596 203.396 125.825H203.396Z" fill="#A0616A"/>
<path d="M256.58 295.505H250.027L246.91 275.574L256.581 275.575L256.58 295.505Z" fill="#A0616A"/>
<path d="M258.251 301.857L237.122 301.857V301.589C237.122 300.509 237.335 299.44 237.748 298.442C238.161 297.444 238.767 296.538 239.531 295.774C240.294 295.01 241.201 294.405 242.199 293.991C243.197 293.578 244.266 293.365 245.346 293.365H245.347L258.252 293.366L258.251 301.857Z" fill="#2F2E41"/>
<path d="M281.167 295.505H274.615L271.497 275.574L281.169 275.575L281.167 295.505Z" fill="#A0616A"/>
<path d="M282.839 301.857L261.709 301.857V301.589C261.709 300.509 261.922 299.44 262.335 298.442C262.749 297.444 263.354 296.538 264.118 295.774C264.882 295.01 265.788 294.405 266.786 293.991C267.784 293.578 268.853 293.365 269.933 293.365H269.934L282.839 293.366L282.839 301.857Z" fill="#2F2E41"/>
<path d="M248.666 291.566C248.068 291.566 247.491 291.344 247.049 290.941C246.606 290.538 246.33 289.985 246.275 289.389L240.564 212.585L240.834 212.563L280.132 209.333L280.142 209.613L283.266 289.175C283.278 289.498 283.225 289.821 283.11 290.123C282.994 290.425 282.819 290.701 282.595 290.934C282.37 291.167 282.101 291.352 281.804 291.479C281.506 291.605 281.186 291.67 280.862 291.67H273.157C272.582 291.673 272.025 291.468 271.588 291.094C271.152 290.719 270.865 290.2 270.78 289.631L260.316 225.358C260.306 225.292 260.271 225.232 260.219 225.19C260.166 225.148 260.1 225.128 260.033 225.133C259.966 225.137 259.903 225.167 259.857 225.216C259.811 225.265 259.785 225.33 259.785 225.397L259.31 288.856C259.305 289.469 259.067 290.057 258.644 290.5C258.22 290.943 257.644 291.208 257.032 291.241L248.795 291.562C248.752 291.565 248.709 291.566 248.666 291.566Z" fill="#2F2E41"/>
<path d="M255.374 115.522C262.624 115.522 268.502 109.644 268.502 102.394C268.502 95.1432 262.624 89.2655 255.374 89.2655C248.124 89.2655 242.246 95.1432 242.246 102.394C242.246 109.644 248.124 115.522 255.374 115.522Z" fill="#A0616A"/>
<path d="M257.915 217.484C252.177 217.467 246.467 216.686 240.935 215.163C240.402 215.008 239.94 214.674 239.625 214.218C239.31 213.762 239.162 213.211 239.205 212.658C240.973 186.096 241.388 165.483 237.672 151.221C236.088 145.143 236.807 138.741 239.645 133.657C243.915 126.007 251.765 121.351 260.138 121.511C260.538 121.519 260.942 121.533 261.35 121.554C274.057 122.208 283.959 133.704 283.422 147.18L280.867 211.411C280.857 211.88 280.709 212.335 280.441 212.72C280.174 213.105 279.798 213.401 279.362 213.573C272.505 216.152 265.241 217.477 257.915 217.484Z" fill="#3F3D56"/>
<path d="M239.832 156.153L229.998 144.103C229.719 143.76 229.516 143.361 229.404 142.933C229.293 142.504 229.275 142.057 229.352 141.621C229.428 141.185 229.598 140.771 229.849 140.407C230.101 140.043 230.428 139.737 230.808 139.51L244.129 131.573C245.891 130.151 248.145 129.486 250.397 129.724C252.649 129.961 254.715 131.082 256.141 132.841C257.568 134.6 258.239 136.852 258.007 139.105C257.775 141.357 256.659 143.426 254.904 144.857L244.494 156.281C244.195 156.608 243.83 156.867 243.423 157.04C243.016 157.213 242.576 157.297 242.134 157.284C241.691 157.272 241.257 157.165 240.859 156.97C240.462 156.775 240.112 156.496 239.832 156.153Z" fill="#3F3D56"/>
<path d="M270.767 154.641C270.363 154.46 270.003 154.195 269.711 153.862C269.419 153.529 269.202 153.138 269.076 152.714L264.649 137.905C263.688 135.854 263.579 133.506 264.347 131.376C265.115 129.245 266.696 127.506 268.745 126.54C270.793 125.574 273.141 125.46 275.273 126.222C277.405 126.985 279.148 128.562 280.119 130.608L288.68 143.537C288.925 143.906 289.086 144.323 289.155 144.76C289.223 145.198 289.197 145.644 289.077 146.07C288.957 146.496 288.747 146.892 288.461 147.229C288.175 147.567 287.819 147.838 287.418 148.026L273.331 154.62C272.931 154.808 272.494 154.907 272.051 154.91C271.609 154.914 271.171 154.822 270.767 154.641Z" fill="#3F3D56"/>
<path d="M261.861 113.166L252.13 110.938C251.126 110.709 249.92 110.27 249.781 109.25C249.594 107.879 251.567 106.924 251.385 105.552C251.209 104.223 249.411 104.052 248.13 103.66C246.936 103.241 245.952 102.374 245.386 101.243C244.82 100.112 244.717 98.8045 245.098 97.5983C243.711 99.5524 240.543 99.7198 238.744 98.1366C236.946 96.5534 236.601 93.6808 237.681 91.5419C238.264 90.4913 239.088 89.5932 240.084 88.9207C241.08 88.2482 242.22 87.8203 243.413 87.6717C245.811 87.3998 248.235 87.8518 250.374 88.9695C250.516 87.455 252.407 86.841 253.928 86.8275C257.088 86.8643 260.158 87.8853 262.71 89.7483C265.263 91.6112 267.171 94.2236 268.169 97.2218C270.036 103.236 268.787 109.829 263.565 113.348L261.861 113.166Z" fill="#2F2E41"/>
<path d="M359.879 302H156.231C156.089 302 155.953 301.944 155.853 301.843C155.752 301.743 155.696 301.607 155.696 301.465C155.696 301.324 155.752 301.188 155.853 301.088C155.953 300.987 156.089 300.931 156.231 300.931H359.879C360.021 300.931 360.157 300.987 360.257 301.088C360.357 301.188 360.414 301.324 360.414 301.465C360.414 301.607 360.357 301.743 360.257 301.843C360.157 301.944 360.021 302 359.879 302Z" fill="#3F3D56"/>
</svg>
