<svg width="177" height="31" viewBox="0 0 177 31" fill="none" xmlns="http://www.w3.org/2000/svg">
<path d="M51.0391 21.1758H58.5039V24H47.5234V6.9375H51.0391V21.1758ZM70.3984 20.4844H64.2344L63.0625 24H59.3242L65.6758 6.9375H68.9336L75.3203 24H71.582L70.3984 20.4844ZM65.1836 17.6367H69.4492L67.3047 11.25L65.1836 17.6367ZM76.9141 24V6.9375H82.8906C84.9609 6.9375 86.5312 7.33594 87.6016 8.13281C88.6719 8.92188 89.207 10.082 89.207 11.6133C89.207 12.4492 88.9922 13.1875 88.5625 13.8281C88.1328 14.4609 87.5352 14.9258 86.7695 15.2227C87.6445 15.4414 88.332 15.8828 88.832 16.5469C89.3398 17.2109 89.5938 18.0234 89.5938 18.9844C89.5938 20.625 89.0703 21.8672 88.0234 22.7109C86.9766 23.5547 85.4844 23.9844 83.5469 24H76.9141ZM80.4297 16.5703V21.1758H83.4414C84.2695 21.1758 84.9141 20.9805 85.375 20.5898C85.8438 20.1914 86.0781 19.6445 86.0781 18.9492C86.0781 17.3867 85.2695 16.5938 83.6523 16.5703H80.4297ZM80.4297 14.0859H83.0312C84.8047 14.0547 85.6914 13.3477 85.6914 11.9648C85.6914 11.1914 85.4648 10.6367 85.0117 10.3008C84.5664 9.95703 83.8594 9.78516 82.8906 9.78516H80.4297V14.0859Z" fill="#0A58CA"/>
<path d="M98.957 17.0977H94.9492V24H92.6875V6.9375H98.3359C100.258 6.9375 101.734 7.375 102.766 8.25C103.805 9.125 104.324 10.3984 104.324 12.0703C104.324 13.1328 104.035 14.0586 103.457 14.8477C102.887 15.6367 102.09 16.2266 101.066 16.6172L105.074 23.8594V24H102.66L98.957 17.0977ZM94.9492 15.2578H98.4062C99.5234 15.2578 100.41 14.9688 101.066 14.3906C101.73 13.8125 102.062 13.0391 102.062 12.0703C102.062 11.0156 101.746 10.207 101.113 9.64453C100.488 9.08203 99.582 8.79688 98.3945 8.78906H94.9492V15.2578ZM117.133 16.1133H109.738V22.1602H118.328V24H107.488V6.9375H118.211V8.78906H109.738V14.2734H117.133V16.1133ZM126.156 16.3945C124.227 15.8398 122.82 15.1602 121.938 14.3555C121.062 13.543 120.625 12.543 120.625 11.3555C120.625 10.0117 121.16 8.90234 122.23 8.02734C123.309 7.14453 124.707 6.70312 126.426 6.70312C127.598 6.70312 128.641 6.92969 129.555 7.38281C130.477 7.83594 131.188 8.46094 131.688 9.25781C132.195 10.0547 132.449 10.9258 132.449 11.8711H130.188C130.188 10.8398 129.859 10.0312 129.203 9.44531C128.547 8.85156 127.621 8.55469 126.426 8.55469C125.316 8.55469 124.449 8.80078 123.824 9.29297C123.207 9.77734 122.898 10.4531 122.898 11.3203C122.898 12.0156 123.191 12.6055 123.777 13.0898C124.371 13.5664 125.375 14.0039 126.789 14.4023C128.211 14.8008 129.32 15.2422 130.117 15.7266C130.922 16.2031 131.516 16.7617 131.898 17.4023C132.289 18.043 132.484 18.7969 132.484 19.6641C132.484 21.0469 131.945 22.1562 130.867 22.9922C129.789 23.8203 128.348 24.2344 126.543 24.2344C125.371 24.2344 124.277 24.0117 123.262 23.5664C122.246 23.1133 121.461 22.4961 120.906 21.7148C120.359 20.9336 120.086 20.0469 120.086 19.0547H122.348C122.348 20.0859 122.727 20.9023 123.484 21.5039C124.25 22.0977 125.27 22.3945 126.543 22.3945C127.73 22.3945 128.641 22.1523 129.273 21.668C129.906 21.1836 130.223 20.5234 130.223 19.6875C130.223 18.8516 129.93 18.207 129.344 17.7539C128.758 17.293 127.695 16.8398 126.156 16.3945ZM145.023 16.1133H137.629V22.1602H146.219V24H135.379V6.9375H146.102V8.78906H137.629V14.2734H145.023V16.1133ZM155.277 17.0977H151.27V24H149.008V6.9375H154.656C156.578 6.9375 158.055 7.375 159.086 8.25C160.125 9.125 160.645 10.3984 160.645 12.0703C160.645 13.1328 160.355 14.0586 159.777 14.8477C159.207 15.6367 158.41 16.2266 157.387 16.6172L161.395 23.8594V24H158.98L155.277 17.0977ZM151.27 15.2578H154.727C155.844 15.2578 156.73 14.9688 157.387 14.3906C158.051 13.8125 158.383 13.0391 158.383 12.0703C158.383 11.0156 158.066 10.207 157.434 9.64453C156.809 9.08203 155.902 8.79688 154.715 8.78906H151.27V15.2578ZM169.223 21.0117L174.098 6.9375H176.559L170.23 24H168.238L161.922 6.9375H164.371L169.223 21.0117Z" fill="#0D6EFD"/>
<path d="M5.53681 0.536806C3.05726 3.01635 1.36867 6.17549 0.684567 9.61472C0.000461638 13.0539 0.35157 16.6188 1.69349 19.8585C3.03541 23.0982 5.30788 25.8672 8.22352 27.8153C11.1392 29.7635 14.567 30.8033 18.0736 30.8033C21.5802 30.8033 25.0081 29.7635 27.9237 27.8153C30.8394 25.8672 33.1118 23.0982 34.4538 19.8585C35.7957 16.6188 36.1468 13.0539 35.4627 9.61472C34.7786 6.17549 33.09 3.01635 30.6104 0.536804L18.0736 13.0736L5.53681 0.536806Z" fill="#0A58CA"/>
</svg>
